<?xml version="1.0" encoding="UTF-8" standalone="no"?>
<svg width="200" height="260" viewBox="0 0 200 260" fill="none" xmlns="http://www.w3.org/2000/svg">
  <rect width="200" height="260" fill="#e5e7eb"/>
  <path d="M100 80C117.673 80 132 65.673 132 48C132 30.327 117.673 16 100 16C82.327 16 68 30.327 68 48C68 65.673 82.327 80 100 80Z" fill="#9ca3af"/>
  <path d="M100 100C65.5 100 60 130 60 140V170C60 180 75 200 100 200C125 200 140 180 140 170V140C140 130 134.5 100 100 100Z" fill="#9ca3af"/>
  <text x="100" y="230" text-anchor="middle" font-family="sans-serif" font-size="14" fill="#4b5563">Student Photo</text>
</svg>